<?xml version="1.0" encoding="UTF-8" standalone="no"?>
<!-- Generator: Adobe Illustrator 19.1.1, SVG Export Plug-In . SVG Version: 6.00 Build 0)  -->

<svg
   xmlns:dc="http://purl.org/dc/elements/1.1/"
   xmlns:cc="http://creativecommons.org/ns#"
   xmlns:rdf="http://www.w3.org/1999/02/22-rdf-syntax-ns#"
   xmlns:svg="http://www.w3.org/2000/svg"
   xmlns="http://www.w3.org/2000/svg"
   xmlns:sodipodi="http://sodipodi.sourceforge.net/DTD/sodipodi-0.dtd"
   xmlns:inkscape="http://www.inkscape.org/namespaces/inkscape"
   version="1.1"
   id="Layer_1"
   x="0px"
   y="0px"
   viewBox="0 0 19 29.846848"
   xml:space="preserve"
   sodipodi:docname="capacitor.svg"
   width="19"
   height="29.846848"
   inkscape:version="0.92.4 (5da689c313, 2019-01-14)"><metadata
   id="metadata70"><rdf:RDF><cc:Work
       rdf:about=""><dc:format>image/svg+xml</dc:format><dc:type
         rdf:resource="http://purl.org/dc/dcmitype/StillImage" /><dc:title></dc:title></cc:Work></rdf:RDF></metadata><defs
   id="defs68">
		
	</defs><sodipodi:namedview
   pagecolor="#ffffff"
   bordercolor="#666666"
   borderopacity="1"
   objecttolerance="10"
   gridtolerance="10"
   guidetolerance="10"
   inkscape:pageopacity="0"
   inkscape:pageshadow="2"
   inkscape:window-width="1838"
   inkscape:window-height="1057"
   id="namedview66"
   showgrid="false"
   fit-margin-top="0"
   fit-margin-left="0"
   fit-margin-right="0"
   fit-margin-bottom="0"
   inkscape:zoom="20.699004"
   inkscape:cx="8.3703122"
   inkscape:cy="17.638055"
   inkscape:window-x="74"
   inkscape:window-y="-8"
   inkscape:window-maximized="1"
   inkscape:current-layer="Layer_1" />
<g
   id="g45"
   transform="matrix(0.5,0,0,0.4875,-3.5,10.834347)">
	<rect
   x="15.5"
   y="23.5"
   style="fill:#ffeea3"
   width="2"
   height="15"
   id="rect41" />
	<path
   style="fill:#f5c276"
   d="M 17,24 V 38 H 16 V 24 h 1 m 1,-1 h -3 v 16 h 3 z"
   id="path43"
   inkscape:connector-curvature="0" />
</g>
<g
   id="g51"
   transform="matrix(0.5,0,0,0.4875,2,10.834347)">
	<rect
   x="23.5"
   y="23.5"
   style="fill:#ffeea3"
   width="2"
   height="15"
   id="rect47" />
	<path
   style="fill:#f5c276"
   d="M 25,24 V 38 H 24 V 24 h 1 m 1,-1 h -3 v 16 h 3 z"
   id="path49"
   inkscape:connector-curvature="0" />
</g>
<g
   id="g59"
   transform="translate(-11,-1)">
	<path
   style="fill:#8bb7f0"
   d="m 13,24.5 c -0.827,0 -1.5,-0.673 -1.5,-1.5 v -1.55 c 1.14,-0.232 2,-1.242 2,-2.45 0,-1.208 -0.86,-2.217 -2,-2.45 V 3 c 0,-0.827 0.673,-1.5 1.5,-1.5 h 15 c 0.827,0 1.5,0.673 1.5,1.5 v 13.55 c -1.14,0.232 -2,1.242 -2,2.45 0,1.208 0.86,2.217 2,2.45 V 23 c 0,0.827 -0.673,1.5 -1.5,1.5 z"
   id="path53"
   inkscape:connector-curvature="0" />
	<path
   inkscape:connector-curvature="0"
   id="path55"
   d="m 28,2 c 0.551,0 1,0.449 1,1 v 13.171 c -1.164,0.413 -2,1.525 -2,2.829 0,1.304 0.836,2.416 2,2.829 V 23 c 0,0.551 -0.449,1 -1,1 H 13 c -0.551,0 -1,-0.449 -1,-1 V 21.829 C 13.164,21.416 14,20.304 14,19 14,17.696 13.164,16.584 12,16.171 V 3 C 12,2.449 12.449,2 13,2 H 28 M 28,1 H 13 c -1.105,0 -2,0.895 -2,2 v 14 c 1.105,0 2,0.895 2,2 0,1.105 -0.895,2 -2,2 v 2 c 0,1.105 0.895,2 2,2 h 15 c 1.105,0 2,-0.895 2,-2 v -2 c -1.105,0 -2,-0.895 -2,-2 0,-1.105 0.895,-2 2,-2 V 3 C 30,1.895 29.105,1 28,1 Z"
   style="fill:#4e7ab5" />
</g>
<g
   id="g63"
   transform="translate(-11,-1)">
	<path
   style="fill:#7496c4"
   d="M 27.779,17 H 13.221 C 13.7,17.532 14,18.228 14,19 c 0,0.772 -0.3,1.468 -0.779,2 H 27.778 C 27.3,20.468 27,19.772 27,19 c 0,-0.772 0.3,-1.468 0.779,-2 z"
   id="path61"
   inkscape:connector-curvature="0" />
</g>
</svg>