<?xml version="1.0" encoding="iso-8859-1"?>
<!-- Generator: Adobe Illustrator 19.1.1, SVG Export Plug-In . SVG Version: 6.00 Build 0)  -->
<svg version="1.1" id="Layer_1" xmlns="http://www.w3.org/2000/svg" xmlns:xlink="http://www.w3.org/1999/xlink" x="0px" y="0px"
	 viewBox="0 0 40 40" style="enable-background:new 0 0 40 40;" xml:space="preserve">
<g>
	<rect x="8.5" y="1.5" style="fill:#FFEEA3;" width="2" height="37"/>
	<path style="fill:#F5C276;" d="M10,2v36H9V2H10 M11,1H8v38h3V1L11,1z"/>
</g>
<g>
	<rect x="12.5" y="1.5" style="fill:#FFEEA3;" width="2" height="37"/>
	<path style="fill:#F5C276;" d="M14,2v36h-1V2H14 M15,1h-3v38h3V1L15,1z"/>
</g>
<g>
	<rect x="16.5" y="1.5" style="fill:#FFEEA3;" width="2" height="37"/>
	<path style="fill:#F5C276;" d="M18,2v36h-1V2H18 M19,1h-3v38h3V1L19,1z"/>
</g>
<g>
	<rect x="20.5" y="1.5" style="fill:#FFEEA3;" width="2" height="37"/>
	<path style="fill:#F5C276;" d="M22,2v36h-1V2H22 M23,1h-3v38h3V1L23,1z"/>
</g>
<g>
	<rect x="24.5" y="1.5" style="fill:#FFEEA3;" width="2" height="37"/>
	<path style="fill:#F5C276;" d="M26,2v36h-1V2H26 M27,1h-3v38h3V1L27,1z"/>
</g>
<g>
	<rect x="28.5" y="1.5" style="fill:#FFEEA3;" width="2" height="37"/>
	<path style="fill:#F5C276;" d="M30,2v36h-1V2H30 M31,1h-3v38h3V1L31,1z"/>
</g>
<g>
	<rect x="1.5" y="9.5" style="fill:#FFEEA3;" width="37" height="2"/>
	<path style="fill:#F5C276;" d="M38,10v1H2v-1H38 M39,9H1v3h38V9L39,9z"/>
</g>
<g>
	<rect x="1.5" y="13.5" style="fill:#FFEEA3;" width="37" height="2"/>
	<path style="fill:#F5C276;" d="M38,14v1H2v-1H38 M39,13H1v3h38V13L39,13z"/>
</g>
<g>
	<rect x="1.5" y="17.5" style="fill:#FFEEA3;" width="37" height="2"/>
	<path style="fill:#F5C276;" d="M38,18v1H2v-1H38 M39,17H1v3h38V17L39,17z"/>
</g>
<g>
	<rect x="1.5" y="21.5" style="fill:#FFEEA3;" width="37" height="2"/>
	<path style="fill:#F5C276;" d="M38,22v1H2v-1H38 M39,21H1v3h38V21L39,21z"/>
</g>
<g>
	<rect x="1.5" y="25.5" style="fill:#FFEEA3;" width="37" height="2"/>
	<path style="fill:#F5C276;" d="M38,26v1H2v-1H38 M39,25H1v3h38V25L39,25z"/>
</g>
<g>
	<rect x="1.5" y="29.5" style="fill:#FFEEA3;" width="37" height="2"/>
	<path style="fill:#F5C276;" d="M38,30v1H2v-1H38 M39,29H1v3h38V29L39,29z"/>
</g>
<g>
	<path style="fill:#4B6477;" d="M7,34.5c-0.827,0-1.5-0.673-1.5-1.5V7c0-0.827,0.673-1.5,1.5-1.5h26c0.827,0,1.5,0.673,1.5,1.5v26
		c0,0.827-0.673,1.5-1.5,1.5H7z"/>
	<g>
		<path style="fill:#36404D;" d="M33,6c0.551,0,1,0.449,1,1v26c0,0.551-0.449,1-1,1H7c-0.551,0-1-0.449-1-1V7c0-0.551,0.449-1,1-1
			H33 M33,5H7C5.895,5,5,5.895,5,7v26c0,1.105,0.895,2,2,2h26c1.105,0,2-0.895,2-2V7C35,5.895,34.105,5,33,5L33,5z"/>
	</g>
</g>
<g>
	<circle style="fill:#BDCCD4;" cx="10.5" cy="10.5" r="1.5"/>
</g>
<g>
	<circle style="fill:#BDCCD4;" cx="29.5" cy="10.5" r="1.5"/>
</g>
<g>
	<circle style="fill:#BDCCD4;" cx="29.5" cy="29.5" r="1.5"/>
</g>
<g>
	<circle style="fill:#BDCCD4;" cx="10.5" cy="29.5" r="1.5"/>
</g>
</svg>
